<?xml version="1.0" encoding="UTF-8" standalone="no"?>
<!DOCTYPE svg PUBLIC "-//W3C//DTD SVG 1.1//EN"
 "http://www.w3.org/Graphics/SVG/1.1/DTD/svg11.dtd">
<!-- Generated by graphviz version 2.38.0 (20140413.2041)
 -->
<!-- Title: packages_zephyr Pages: 1 -->
<svg width="1417pt" height="260pt"
 viewBox="0.00 0.00 1417.23 260.00" xmlns="http://www.w3.org/2000/svg" xmlns:xlink="http://www.w3.org/1999/xlink">
<g id="graph0" class="graph" transform="scale(1 1) rotate(0) translate(4 256)">
<title>packages_zephyr</title>
<polygon fill="white" stroke="none" points="-4,4 -4,-256 1413.23,-256 1413.23,4 -4,4"/>
<!-- 0 -->
<g id="node1" class="node"><title>0</title>
<polygon fill="none" stroke="black" points="543.657,-36 439.723,-36 439.723,-0 543.657,-0 543.657,-36"/>
<text text-anchor="middle" x="491.69" y="-13.8" font-family="Times,serif" font-size="14.00">zephyr.backend</text>
</g>
<!-- 1 -->
<g id="node2" class="node"><title>1</title>
<polygon fill="none" stroke="black" points="161.57,-108 -0.19039,-108 -0.19039,-72 161.57,-72 161.57,-108"/>
<text text-anchor="middle" x="80.6899" y="-85.8" font-family="Times,serif" font-size="14.00">zephyr.backend.analytical</text>
</g>
<!-- 0&#45;&gt;1 -->
<g id="edge1" class="edge"><title>0&#45;&gt;1</title>
<path fill="none" stroke="black" d="M439.935,-27.5028C377.323,-37.8303 268.73,-55.8734 175.69,-72 174.39,-72.2253 173.08,-72.4529 171.762,-72.6823"/>
<polygon fill="black" stroke="black" points="161.529,-74.4722 170.604,-68.3164 166.454,-73.6107 171.38,-72.7491 171.38,-72.7491 171.38,-72.7491 166.454,-73.6107 172.155,-77.1818 161.529,-74.4722 161.529,-74.4722"/>
</g>
<!-- 2 -->
<g id="node3" class="node"><title>2</title>
<polygon fill="none" stroke="black" points="583.07,-180 400.31,-180 400.31,-144 583.07,-144 583.07,-180"/>
<text text-anchor="middle" x="491.69" y="-157.8" font-family="Times,serif" font-size="14.00">zephyr.backend.discretization</text>
</g>
<!-- 0&#45;&gt;2 -->
<g id="edge2" class="edge"><title>0&#45;&gt;2</title>
<path fill="none" stroke="black" d="M439.883,-21.0531C366.375,-25.1775 237.504,-37.2886 208.69,-72 154.249,-137.583 288.456,-155.566 390.162,-160.085"/>
<polygon fill="black" stroke="black" points="400.205,-160.493 390.031,-164.583 395.21,-160.29 390.214,-160.087 390.214,-160.087 390.214,-160.087 395.21,-160.29 390.396,-155.591 400.205,-160.493 400.205,-160.493"/>
</g>
<!-- 3 -->
<g id="node4" class="node"><title>3</title>
<polygon fill="none" stroke="black" points="387.935,-108 217.445,-108 217.445,-72 387.935,-72 387.935,-108"/>
<text text-anchor="middle" x="302.69" y="-85.8" font-family="Times,serif" font-size="14.00">zephyr.backend.distributors</text>
</g>
<!-- 0&#45;&gt;3 -->
<g id="edge3" class="edge"><title>0&#45;&gt;3</title>
<path fill="none" stroke="black" d="M445.455,-36.1239C419.159,-45.8635 386.046,-58.1275 358.332,-68.3919"/>
<polygon fill="black" stroke="black" points="348.774,-71.9317 356.589,-64.2386 353.463,-70.1951 358.152,-68.4585 358.152,-68.4585 358.152,-68.4585 353.463,-70.1951 359.715,-72.6783 348.774,-71.9317 348.774,-71.9317"/>
</g>
<!-- 4 -->
<g id="node5" class="node"><title>4</title>
<polygon fill="none" stroke="black" points="750.48,-108 612.9,-108 612.9,-72 750.48,-72 750.48,-108"/>
<text text-anchor="middle" x="681.69" y="-85.8" font-family="Times,serif" font-size="14.00">zephyr.backend.eurus</text>
</g>
<!-- 0&#45;&gt;4 -->
<g id="edge4" class="edge"><title>0&#45;&gt;4</title>
<path fill="none" stroke="black" d="M538.169,-36.1239C564.605,-45.8635 597.893,-58.1275 625.754,-68.3919"/>
<polygon fill="black" stroke="black" points="635.362,-71.9317 624.423,-72.6971 630.67,-70.2031 625.978,-68.4746 625.978,-68.4746 625.978,-68.4746 630.67,-70.2031 627.534,-64.252 635.362,-71.9317 635.362,-71.9317"/>
</g>
<!-- 5 -->
<g id="node6" class="node"><title>5</title>
<polygon fill="none" stroke="black" points="820.863,-252 686.517,-252 686.517,-216 820.863,-216 820.863,-252"/>
<text text-anchor="middle" x="753.69" y="-229.8" font-family="Times,serif" font-size="14.00">zephyr.backend.meta</text>
</g>
<!-- 0&#45;&gt;5 -->
<g id="edge5" class="edge"><title>0&#45;&gt;5</title>
<path fill="none" stroke="black" d="M543.705,-21.679C613.793,-26.5017 732.893,-39.3847 759.69,-72 790.719,-109.767 776.591,-170.994 764.496,-206.054"/>
<polygon fill="black" stroke="black" points="761.02,-215.624 760.205,-204.688 762.727,-210.925 764.434,-206.225 764.434,-206.225 764.434,-206.225 762.727,-210.925 768.664,-207.762 761.02,-215.624 761.02,-215.624"/>
</g>
<!-- 6 -->
<g id="node7" class="node"><title>6</title>
<polygon fill="none" stroke="black" points="576.915,-108 406.465,-108 406.465,-72 576.915,-72 576.915,-108"/>
<text text-anchor="middle" x="491.69" y="-85.8" font-family="Times,serif" font-size="14.00">zephyr.backend.minizephyr</text>
</g>
<!-- 0&#45;&gt;6 -->
<g id="edge6" class="edge"><title>0&#45;&gt;6</title>
<path fill="none" stroke="black" d="M491.69,-36.3034C491.69,-44.0173 491.69,-53.2875 491.69,-61.8876"/>
<polygon fill="black" stroke="black" points="491.69,-71.8957 487.19,-61.8956 491.69,-66.8957 491.69,-61.8957 491.69,-61.8957 491.69,-61.8957 491.69,-66.8957 496.19,-61.8957 491.69,-71.8957 491.69,-71.8957"/>
</g>
<!-- 8 -->
<g id="node9" class="node"><title>8</title>
<polygon fill="none" stroke="black" points="950.195,-180 807.185,-180 807.185,-144 950.195,-144 950.195,-180"/>
<text text-anchor="middle" x="878.69" y="-157.8" font-family="Times,serif" font-size="14.00">zephyr.backend.source</text>
</g>
<!-- 0&#45;&gt;8 -->
<g id="edge7" class="edge"><title>0&#45;&gt;8</title>
<path fill="none" stroke="black" d="M543.529,-18.5882C606.122,-20.1625 712.916,-29.6118 792.69,-72 821.08,-87.0852 845.662,-114.94 861.189,-135.484"/>
<polygon fill="black" stroke="black" points="867.274,-143.782 857.732,-138.379 864.317,-139.75 861.361,-135.718 861.361,-135.718 861.361,-135.718 864.317,-139.75 864.99,-133.057 867.274,-143.782 867.274,-143.782"/>
</g>
<!-- 2&#45;&gt;5 -->
<g id="edge8" class="edge"><title>2&#45;&gt;5</title>
<path fill="none" stroke="black" d="M555.447,-180.034C593.01,-190.07 640.691,-202.81 679.878,-213.279"/>
<polygon fill="black" stroke="black" points="689.647,-215.889 678.824,-217.655 684.816,-214.599 679.986,-213.308 679.986,-213.308 679.986,-213.308 684.816,-214.599 681.147,-208.96 689.647,-215.889 689.647,-215.889"/>
</g>
<!-- 7 -->
<g id="node8" class="node"><title>7</title>
<polygon fill="none" stroke="black" points="562.37,-252 421.01,-252 421.01,-216 562.37,-216 562.37,-252"/>
<text text-anchor="middle" x="491.69" y="-229.8" font-family="Times,serif" font-size="14.00">zephyr.backend.solver</text>
</g>
<!-- 2&#45;&gt;7 -->
<g id="edge9" class="edge"><title>2&#45;&gt;7</title>
<path fill="none" stroke="black" d="M491.69,-180.303C491.69,-188.017 491.69,-197.288 491.69,-205.888"/>
<polygon fill="black" stroke="black" points="491.69,-215.896 487.19,-205.896 491.69,-210.896 491.69,-205.896 491.69,-205.896 491.69,-205.896 491.69,-210.896 496.19,-205.896 491.69,-215.896 491.69,-215.896"/>
</g>
<!-- 3&#45;&gt;2 -->
<g id="edge10" class="edge"><title>3&#45;&gt;2</title>
<path fill="none" stroke="black" d="M348.925,-108.124C375.221,-117.863 408.334,-130.128 436.048,-140.392"/>
<polygon fill="black" stroke="black" points="445.605,-143.932 434.665,-144.678 440.917,-142.195 436.228,-140.458 436.228,-140.458 436.228,-140.458 440.917,-142.195 437.791,-136.239 445.605,-143.932 445.605,-143.932"/>
</g>
<!-- 4&#45;&gt;2 -->
<g id="edge11" class="edge"><title>4&#45;&gt;2</title>
<path fill="none" stroke="black" d="M635.211,-108.124C608.775,-117.863 575.487,-130.128 547.626,-140.392"/>
<polygon fill="black" stroke="black" points="538.018,-143.932 545.846,-136.252 542.71,-142.203 547.402,-140.475 547.402,-140.475 547.402,-140.475 542.71,-142.203 548.957,-144.697 538.018,-143.932 538.018,-143.932"/>
</g>
<!-- 4&#45;&gt;5 -->
<g id="edge12" class="edge"><title>4&#45;&gt;5</title>
<path fill="none" stroke="black" d="M690.375,-108.129C702.808,-132.65 725.786,-177.968 740.376,-206.741"/>
<polygon fill="black" stroke="black" points="744.974,-215.811 736.438,-208.927 742.713,-211.351 740.452,-206.892 740.452,-206.892 740.452,-206.892 742.713,-211.351 744.465,-204.857 744.974,-215.811 744.974,-215.811"/>
</g>
<!-- 6&#45;&gt;2 -->
<g id="edge13" class="edge"><title>6&#45;&gt;2</title>
<path fill="none" stroke="black" d="M491.69,-108.303C491.69,-116.017 491.69,-125.288 491.69,-133.888"/>
<polygon fill="black" stroke="black" points="491.69,-143.896 487.19,-133.896 491.69,-138.896 491.69,-133.896 491.69,-133.896 491.69,-133.896 491.69,-138.896 496.19,-133.896 491.69,-143.896 491.69,-143.896"/>
</g>
<!-- 6&#45;&gt;6 -->
<g id="edge14" class="edge"><title>6&#45;&gt;6</title>
<path fill="none" stroke="black" d="M577.239,-78.2435C587.982,-80.3156 595.052,-84.2344 595.052,-90 595.052,-93.7837 592.007,-96.772 586.878,-98.965"/>
<polygon fill="black" stroke="black" points="577.239,-101.756 585.593,-94.6522 582.042,-100.366 586.844,-98.9746 586.844,-98.9746 586.844,-98.9746 582.042,-100.366 588.096,-103.297 577.239,-101.756 577.239,-101.756"/>
</g>
<!-- 8&#45;&gt;5 -->
<g id="edge15" class="edge"><title>8&#45;&gt;5</title>
<path fill="none" stroke="black" d="M848.112,-180.124C831.616,-189.361 811.066,-200.869 793.353,-210.788"/>
<polygon fill="black" stroke="black" points="784.386,-215.81 790.912,-206.998 788.748,-213.367 793.111,-210.924 793.111,-210.924 793.111,-210.924 788.748,-213.367 795.31,-214.85 784.386,-215.81 784.386,-215.81"/>
</g>
<!-- 9 -->
<g id="node10" class="node"><title>9</title>
<polygon fill="none" stroke="black" points="995.942,-36 891.438,-36 891.438,-0 995.942,-0 995.942,-36"/>
<text text-anchor="middle" x="943.69" y="-13.8" font-family="Times,serif" font-size="14.00">zephyr.frontend</text>
</g>
<!-- 10 -->
<g id="node11" class="node"><title>10</title>
<polygon fill="none" stroke="black" points="1004.44,-108 882.945,-108 882.945,-72 1004.44,-72 1004.44,-108"/>
<text text-anchor="middle" x="943.69" y="-85.8" font-family="Times,serif" font-size="14.00">zephyr.frontend.cli</text>
</g>
<!-- 9&#45;&gt;10 -->
<g id="edge16" class="edge"><title>9&#45;&gt;10</title>
<path fill="none" stroke="black" d="M943.69,-36.3034C943.69,-44.0173 943.69,-53.2875 943.69,-61.8876"/>
<polygon fill="black" stroke="black" points="943.69,-71.8957 939.19,-61.8956 943.69,-66.8957 943.69,-61.8957 943.69,-61.8957 943.69,-61.8957 943.69,-66.8957 948.19,-61.8957 943.69,-71.8957 943.69,-71.8957"/>
</g>
<!-- 11 -->
<g id="node12" class="node"><title>11</title>
<polygon fill="none" stroke="black" points="1297.1,-36 1174.28,-36 1174.28,-0 1297.1,-0 1297.1,-36"/>
<text text-anchor="middle" x="1235.69" y="-13.8" font-family="Times,serif" font-size="14.00">zephyr.middleware</text>
</g>
<!-- 13 -->
<g id="node14" class="node"><title>13</title>
<polygon fill="none" stroke="black" points="1207.25,-108 1034.13,-108 1034.13,-72 1207.25,-72 1207.25,-108"/>
<text text-anchor="middle" x="1120.69" y="-85.8" font-family="Times,serif" font-size="14.00">zephyr.middleware.problem</text>
</g>
<!-- 11&#45;&gt;13 -->
<g id="edge17" class="edge"><title>11&#45;&gt;13</title>
<path fill="none" stroke="black" d="M1207.56,-36.1239C1192.52,-45.2764 1173.82,-56.6583 1157.63,-66.515"/>
<polygon fill="black" stroke="black" points="1148.93,-71.8102 1155.13,-62.7668 1153.2,-69.2105 1157.47,-66.6107 1157.47,-66.6107 1157.47,-66.6107 1153.2,-69.2105 1159.81,-70.4546 1148.93,-71.8102 1148.93,-71.8102"/>
</g>
<!-- 14 -->
<g id="node15" class="node"><title>14</title>
<polygon fill="none" stroke="black" points="1317.42,-180 1153.96,-180 1153.96,-144 1317.42,-144 1317.42,-180"/>
<text text-anchor="middle" x="1235.69" y="-157.8" font-family="Times,serif" font-size="14.00">zephyr.middleware.survey</text>
</g>
<!-- 11&#45;&gt;14 -->
<g id="edge18" class="edge"><title>11&#45;&gt;14</title>
<path fill="none" stroke="black" d="M1235.69,-36.1285C1235.69,-60.3298 1235.69,-104.789 1235.69,-133.607"/>
<polygon fill="black" stroke="black" points="1235.69,-143.811 1231.19,-133.811 1235.69,-138.811 1235.69,-133.811 1235.69,-133.811 1235.69,-133.811 1235.69,-138.811 1240.19,-133.811 1235.69,-143.811 1235.69,-143.811"/>
</g>
<!-- 15 -->
<g id="node16" class="node"><title>15</title>
<polygon fill="none" stroke="black" points="1409.27,-108 1264.11,-108 1264.11,-72 1409.27,-72 1409.27,-108"/>
<text text-anchor="middle" x="1336.69" y="-85.8" font-family="Times,serif" font-size="14.00">zephyr.middleware.util</text>
</g>
<!-- 11&#45;&gt;15 -->
<g id="edge19" class="edge"><title>11&#45;&gt;15</title>
<path fill="none" stroke="black" d="M1260.4,-36.1239C1273.36,-45.1069 1289.42,-56.2375 1303.45,-65.9659"/>
<polygon fill="black" stroke="black" points="1311.89,-71.8102 1301.11,-69.8124 1307.78,-68.9621 1303.67,-66.1139 1303.67,-66.1139 1303.67,-66.1139 1307.78,-68.9621 1306.23,-62.4153 1311.89,-71.8102 1311.89,-71.8102"/>
</g>
<!-- 12 -->
<g id="node13" class="node"><title>12</title>
<polygon fill="none" stroke="black" points="1135.94,-180 979.445,-180 979.445,-144 1135.94,-144 1135.94,-180"/>
<text text-anchor="middle" x="1057.69" y="-157.8" font-family="Times,serif" font-size="14.00">zephyr.middleware.fields</text>
</g>
<!-- 13&#45;&gt;12 -->
<g id="edge20" class="edge"><title>13&#45;&gt;12</title>
<path fill="none" stroke="black" d="M1105.12,-108.303C1097.49,-116.78 1088.17,-127.136 1079.81,-136.417"/>
<polygon fill="black" stroke="black" points="1073.08,-143.896 1076.43,-133.452 1076.43,-140.179 1079.77,-136.463 1079.77,-136.463 1079.77,-136.463 1076.43,-140.179 1083.12,-139.473 1073.08,-143.896 1073.08,-143.896"/>
</g>
<!-- 13&#45;&gt;14 -->
<g id="edge21" class="edge"><title>13&#45;&gt;14</title>
<path fill="none" stroke="black" d="M1148.82,-108.124C1163.86,-117.276 1182.56,-128.658 1198.75,-138.515"/>
<polygon fill="black" stroke="black" points="1207.45,-143.81 1196.57,-142.455 1203.18,-141.21 1198.91,-138.611 1198.91,-138.611 1198.91,-138.611 1203.18,-141.21 1201.25,-134.767 1207.45,-143.81 1207.45,-143.81"/>
</g>
</g>
</svg>
