<?xml version="1.0" encoding="UTF-8" standalone="no"?>
<!DOCTYPE svg PUBLIC "-//W3C//DTD SVG 1.1//EN"
 "http://www.w3.org/Graphics/SVG/1.1/DTD/svg11.dtd">
<!-- Generated by graphviz version 2.38.0 (20140413.2041)
 -->
<!-- Title: packages_zephyr Pages: 1 -->
<svg width="1210pt" height="260pt"
 viewBox="0.00 0.00 1210.23 260.00" xmlns="http://www.w3.org/2000/svg" xmlns:xlink="http://www.w3.org/1999/xlink">
<g id="graph0" class="graph" transform="scale(1 1) rotate(0) translate(4 256)">
<title>packages_zephyr</title>
<polygon fill="white" stroke="none" points="-4,4 -4,-256 1206.23,-256 1206.23,4 -4,4"/>
<!-- 0 -->
<g id="node1" class="node"><title>0</title>
<polygon fill="none" stroke="black" points="492.657,-36 388.723,-36 388.723,-0 492.657,-0 492.657,-36"/>
<text text-anchor="middle" x="440.69" y="-13.8" font-family="Times,serif" font-size="14.00">zephyr.backend</text>
</g>
<!-- 1 -->
<g id="node2" class="node"><title>1</title>
<polygon fill="none" stroke="black" points="161.57,-108 -0.19039,-108 -0.19039,-72 161.57,-72 161.57,-108"/>
<text text-anchor="middle" x="80.6899" y="-85.8" font-family="Times,serif" font-size="14.00">zephyr.backend.analytical</text>
</g>
<!-- 0&#45;&gt;1 -->
<g id="edge1" class="edge"><title>0&#45;&gt;1</title>
<path fill="none" stroke="black" d="M388.727,-29.1038C332.03,-40.1284 240.192,-57.9857 171.521,-71.3383"/>
<polygon fill="black" stroke="black" points="161.565,-73.2744 170.522,-66.9483 166.473,-72.32 171.381,-71.3656 171.381,-71.3656 171.381,-71.3656 166.473,-72.32 172.24,-75.7829 161.565,-73.2744 161.565,-73.2744"/>
</g>
<!-- 2 -->
<g id="node3" class="node"><title>2</title>
<polygon fill="none" stroke="black" points="496.07,-180 313.31,-180 313.31,-144 496.07,-144 496.07,-180"/>
<text text-anchor="middle" x="404.69" y="-157.8" font-family="Times,serif" font-size="14.00">zephyr.backend.discretization</text>
</g>
<!-- 0&#45;&gt;2 -->
<g id="edge2" class="edge"><title>0&#45;&gt;2</title>
<path fill="none" stroke="black" d="M430.447,-36.0551C424.866,-46.1568 418.366,-59.4068 414.69,-72 408.782,-92.2426 406.327,-116.016 405.325,-133.898"/>
<polygon fill="black" stroke="black" points="404.879,-143.929 400.827,-133.739 405.101,-138.934 405.323,-133.939 405.323,-133.939 405.323,-133.939 405.101,-138.934 409.819,-134.139 404.879,-143.929 404.879,-143.929"/>
</g>
<!-- 3 -->
<g id="node4" class="node"><title>3</title>
<polygon fill="none" stroke="black" points="561.48,-108 423.9,-108 423.9,-72 561.48,-72 561.48,-108"/>
<text text-anchor="middle" x="492.69" y="-85.8" font-family="Times,serif" font-size="14.00">zephyr.backend.eurus</text>
</g>
<!-- 0&#45;&gt;3 -->
<g id="edge3" class="edge"><title>0&#45;&gt;3</title>
<path fill="none" stroke="black" d="M453.544,-36.3034C459.715,-44.6107 467.227,-54.7229 474.014,-63.8593"/>
<polygon fill="black" stroke="black" points="479.984,-71.8957 470.408,-66.5517 477.002,-67.8819 474.021,-63.8682 474.021,-63.8682 474.021,-63.8682 477.002,-67.8819 477.633,-61.1847 479.984,-71.8957 479.984,-71.8957"/>
</g>
<!-- 4 -->
<g id="node5" class="node"><title>4</title>
<polygon fill="none" stroke="black" points="641.863,-252 507.517,-252 507.517,-216 641.863,-216 641.863,-252"/>
<text text-anchor="middle" x="574.69" y="-229.8" font-family="Times,serif" font-size="14.00">zephyr.backend.meta</text>
</g>
<!-- 0&#45;&gt;4 -->
<g id="edge4" class="edge"><title>0&#45;&gt;4</title>
<path fill="none" stroke="black" d="M492.725,-26.3255C520.719,-33.1805 553.034,-46.4271 570.69,-72 598.259,-111.931 590.287,-171.713 582.292,-206.081"/>
<polygon fill="black" stroke="black" points="579.849,-215.88 577.902,-205.089 581.059,-211.029 582.268,-206.177 582.268,-206.177 582.268,-206.177 581.059,-211.029 586.635,-207.266 579.849,-215.88 579.849,-215.88"/>
</g>
<!-- 5 -->
<g id="node6" class="node"><title>5</title>
<polygon fill="none" stroke="black" points="349.915,-108 179.465,-108 179.465,-72 349.915,-72 349.915,-108"/>
<text text-anchor="middle" x="264.69" y="-85.8" font-family="Times,serif" font-size="14.00">zephyr.backend.minizephyr</text>
</g>
<!-- 0&#45;&gt;5 -->
<g id="edge5" class="edge"><title>0&#45;&gt;5</title>
<path fill="none" stroke="black" d="M397.635,-36.1239C373.361,-45.7784 342.85,-57.9135 317.182,-68.1225"/>
<polygon fill="black" stroke="black" points="307.605,-71.9317 315.234,-64.0545 312.251,-70.0838 316.897,-68.2359 316.897,-68.2359 316.897,-68.2359 312.251,-70.0838 318.56,-72.4173 307.605,-71.9317 307.605,-71.9317"/>
</g>
<!-- 7 -->
<g id="node8" class="node"><title>7</title>
<polygon fill="none" stroke="black" points="761.195,-180 618.185,-180 618.185,-144 761.195,-144 761.195,-180"/>
<text text-anchor="middle" x="689.69" y="-157.8" font-family="Times,serif" font-size="14.00">zephyr.backend.source</text>
</g>
<!-- 0&#45;&gt;7 -->
<g id="edge6" class="edge"><title>0&#45;&gt;7</title>
<path fill="none" stroke="black" d="M492.678,-29.0621C526.155,-37.1391 569.621,-50.7139 603.69,-72 630.636,-88.8358 655.147,-115.918 671.045,-135.791"/>
<polygon fill="black" stroke="black" points="677.314,-143.816 667.611,-138.705 674.236,-139.876 671.158,-135.935 671.158,-135.935 671.158,-135.935 674.236,-139.876 674.704,-133.165 677.314,-143.816 677.314,-143.816"/>
</g>
<!-- 2&#45;&gt;4 -->
<g id="edge7" class="edge"><title>2&#45;&gt;4</title>
<path fill="none" stroke="black" d="M446.277,-180.124C469.723,-189.778 499.194,-201.913 523.987,-212.122"/>
<polygon fill="black" stroke="black" points="533.238,-215.932 522.278,-216.285 528.615,-214.028 523.992,-212.124 523.992,-212.124 523.992,-212.124 528.615,-214.028 525.705,-207.963 533.238,-215.932 533.238,-215.932"/>
</g>
<!-- 6 -->
<g id="node7" class="node"><title>6</title>
<polygon fill="none" stroke="black" points="475.37,-252 334.01,-252 334.01,-216 475.37,-216 475.37,-252"/>
<text text-anchor="middle" x="404.69" y="-229.8" font-family="Times,serif" font-size="14.00">zephyr.backend.solver</text>
</g>
<!-- 2&#45;&gt;6 -->
<g id="edge8" class="edge"><title>2&#45;&gt;6</title>
<path fill="none" stroke="black" d="M404.69,-180.303C404.69,-188.017 404.69,-197.288 404.69,-205.888"/>
<polygon fill="black" stroke="black" points="404.69,-215.896 400.19,-205.896 404.69,-210.896 404.69,-205.896 404.69,-205.896 404.69,-205.896 404.69,-210.896 409.19,-205.896 404.69,-215.896 404.69,-215.896"/>
</g>
<!-- 3&#45;&gt;2 -->
<g id="edge9" class="edge"><title>3&#45;&gt;2</title>
<path fill="none" stroke="black" d="M470.937,-108.303C459.854,-117.119 446.216,-127.968 434.2,-137.526"/>
<polygon fill="black" stroke="black" points="426.193,-143.896 431.217,-134.149 430.106,-140.783 434.019,-137.67 434.019,-137.67 434.019,-137.67 430.106,-140.783 436.82,-141.192 426.193,-143.896 426.193,-143.896"/>
</g>
<!-- 3&#45;&gt;4 -->
<g id="edge10" class="edge"><title>3&#45;&gt;4</title>
<path fill="none" stroke="black" d="M502.581,-108.129C516.803,-132.756 543.139,-178.362 559.743,-207.115"/>
<polygon fill="black" stroke="black" points="564.764,-215.811 555.866,-209.401 562.263,-211.481 559.763,-207.151 559.763,-207.151 559.763,-207.151 562.263,-211.481 563.66,-204.901 564.764,-215.811 564.764,-215.811"/>
</g>
<!-- 5&#45;&gt;2 -->
<g id="edge11" class="edge"><title>5&#45;&gt;2</title>
<path fill="none" stroke="black" d="M298.938,-108.124C317.751,-117.531 341.275,-129.292 361.356,-139.333"/>
<polygon fill="black" stroke="black" points="370.31,-143.81 359.354,-143.363 365.838,-141.574 361.366,-139.338 361.366,-139.338 361.366,-139.338 365.838,-141.574 363.379,-135.313 370.31,-143.81 370.31,-143.81"/>
</g>
<!-- 5&#45;&gt;5 -->
<g id="edge12" class="edge"><title>5&#45;&gt;5</title>
<path fill="none" stroke="black" d="M350.239,-78.2435C360.982,-80.3156 368.052,-84.2344 368.052,-90 368.052,-93.7837 365.007,-96.772 359.878,-98.965"/>
<polygon fill="black" stroke="black" points="350.239,-101.756 358.593,-94.6522 355.042,-100.366 359.844,-98.9746 359.844,-98.9746 359.844,-98.9746 355.042,-100.366 361.096,-103.297 350.239,-101.756 350.239,-101.756"/>
</g>
<!-- 7&#45;&gt;4 -->
<g id="edge13" class="edge"><title>7&#45;&gt;4</title>
<path fill="none" stroke="black" d="M661.558,-180.124C646.522,-189.276 627.823,-200.658 611.63,-210.515"/>
<polygon fill="black" stroke="black" points="602.93,-215.81 609.132,-206.767 607.201,-213.21 611.472,-210.611 611.472,-210.611 611.472,-210.611 607.201,-213.21 613.812,-214.455 602.93,-215.81 602.93,-215.81"/>
</g>
<!-- 8 -->
<g id="node9" class="node"><title>8</title>
<polygon fill="none" stroke="black" points="659.942,-36 555.438,-36 555.438,-0 659.942,-0 659.942,-36"/>
<text text-anchor="middle" x="607.69" y="-13.8" font-family="Times,serif" font-size="14.00">zephyr.frontend</text>
</g>
<!-- 9 -->
<g id="node10" class="node"><title>9</title>
<polygon fill="none" stroke="black" points="865.435,-36 743.945,-36 743.945,-0 865.435,-0 865.435,-36"/>
<text text-anchor="middle" x="804.69" y="-13.8" font-family="Times,serif" font-size="14.00">zephyr.frontend.cli</text>
</g>
<!-- 10 -->
<g id="node11" class="node"><title>10</title>
<polygon fill="none" stroke="black" points="1039.1,-36 916.283,-36 916.283,-0 1039.1,-0 1039.1,-36"/>
<text text-anchor="middle" x="977.69" y="-13.8" font-family="Times,serif" font-size="14.00">zephyr.middleware</text>
</g>
<!-- 12 -->
<g id="node13" class="node"><title>12</title>
<polygon fill="none" stroke="black" points="1007.25,-108 834.127,-108 834.127,-72 1007.25,-72 1007.25,-108"/>
<text text-anchor="middle" x="920.69" y="-85.8" font-family="Times,serif" font-size="14.00">zephyr.middleware.problem</text>
</g>
<!-- 10&#45;&gt;12 -->
<g id="edge14" class="edge"><title>10&#45;&gt;12</title>
<path fill="none" stroke="black" d="M963.6,-36.3034C956.767,-44.6954 948.433,-54.9295 940.934,-64.1387"/>
<polygon fill="black" stroke="black" points="934.618,-71.8957 937.443,-61.2999 937.775,-68.0185 940.932,-64.1413 940.932,-64.1413 940.932,-64.1413 937.775,-68.0185 944.422,-66.9827 934.618,-71.8957 934.618,-71.8957"/>
</g>
<!-- 13 -->
<g id="node14" class="node"><title>13</title>
<polygon fill="none" stroke="black" points="1117.42,-180 953.958,-180 953.958,-144 1117.42,-144 1117.42,-180"/>
<text text-anchor="middle" x="1035.69" y="-157.8" font-family="Times,serif" font-size="14.00">zephyr.middleware.survey</text>
</g>
<!-- 10&#45;&gt;13 -->
<g id="edge15" class="edge"><title>10&#45;&gt;13</title>
<path fill="none" stroke="black" d="M993.472,-36.4358C1001.55,-46.2403 1010.88,-59.0789 1016.69,-72 1025.53,-91.6645 1030.34,-115.652 1032.91,-133.767"/>
<polygon fill="black" stroke="black" points="1034.21,-143.936 1028.48,-134.585 1033.58,-138.976 1032.94,-134.016 1032.94,-134.016 1032.94,-134.016 1033.58,-138.976 1037.41,-133.447 1034.21,-143.936 1034.21,-143.936"/>
</g>
<!-- 11 -->
<g id="node12" class="node"><title>11</title>
<polygon fill="none" stroke="black" points="935.935,-180 779.445,-180 779.445,-144 935.935,-144 935.935,-180"/>
<text text-anchor="middle" x="857.69" y="-157.8" font-family="Times,serif" font-size="14.00">zephyr.middleware.fields</text>
</g>
<!-- 12&#45;&gt;11 -->
<g id="edge16" class="edge"><title>12&#45;&gt;11</title>
<path fill="none" stroke="black" d="M905.117,-108.303C897.488,-116.78 888.167,-127.136 879.814,-136.417"/>
<polygon fill="black" stroke="black" points="873.084,-143.896 876.429,-133.452 876.429,-140.179 879.774,-136.463 879.774,-136.463 879.774,-136.463 876.429,-140.179 883.118,-139.473 873.084,-143.896 873.084,-143.896"/>
</g>
<!-- 12&#45;&gt;13 -->
<g id="edge17" class="edge"><title>12&#45;&gt;13</title>
<path fill="none" stroke="black" d="M948.822,-108.124C963.858,-117.276 982.557,-128.658 998.75,-138.515"/>
<polygon fill="black" stroke="black" points="1007.45,-143.81 996.568,-142.455 1003.18,-141.21 998.908,-138.611 998.908,-138.611 998.908,-138.611 1003.18,-141.21 1001.25,-134.767 1007.45,-143.81 1007.45,-143.81"/>
</g>
<!-- 14 -->
<g id="node15" class="node"><title>14</title>
<polygon fill="none" stroke="black" points="1202.27,-36 1057.11,-36 1057.11,-0 1202.27,-0 1202.27,-36"/>
<text text-anchor="middle" x="1129.69" y="-13.8" font-family="Times,serif" font-size="14.00">zephyr.middleware.util</text>
</g>
</g>
</svg>
