<?xml version="1.0" encoding="UTF-8" standalone="no"?>
<!DOCTYPE svg PUBLIC "-//W3C//DTD SVG 1.1//EN"
 "http://www.w3.org/Graphics/SVG/1.1/DTD/svg11.dtd">
<!-- Generated by graphviz version 2.38.0 (20140413.2041)
 -->
<!-- Title: packages_zephyr Pages: 1 -->
<svg width="1221pt" height="260pt"
 viewBox="0.00 0.00 1221.23 260.00" xmlns="http://www.w3.org/2000/svg" xmlns:xlink="http://www.w3.org/1999/xlink">
<g id="graph0" class="graph" transform="scale(1 1) rotate(0) translate(4 256)">
<title>packages_zephyr</title>
<polygon fill="white" stroke="none" points="-4,4 -4,-256 1217.23,-256 1217.23,4 -4,4"/>
<!-- 0 -->
<g id="node1" class="node"><title>0</title>
<polygon fill="none" stroke="black" points="495.657,-36 391.723,-36 391.723,-0 495.657,-0 495.657,-36"/>
<text text-anchor="middle" x="443.69" y="-13.8" font-family="Times,serif" font-size="14.00">zephyr.backend</text>
</g>
<!-- 1 -->
<g id="node2" class="node"><title>1</title>
<polygon fill="none" stroke="black" points="161.57,-108 -0.19039,-108 -0.19039,-72 161.57,-72 161.57,-108"/>
<text text-anchor="middle" x="80.6899" y="-85.8" font-family="Times,serif" font-size="14.00">zephyr.backend.analytical</text>
</g>
<!-- 0&#45;&gt;1 -->
<g id="edge1" class="edge"><title>0&#45;&gt;1</title>
<path fill="none" stroke="black" d="M391.681,-29.0293C334.318,-40.0911 240.946,-58.0965 171.46,-71.4961"/>
<polygon fill="black" stroke="black" points="161.389,-73.4382 170.356,-67.1261 166.298,-72.4915 171.208,-71.5447 171.208,-71.5447 171.208,-71.5447 166.298,-72.4915 172.06,-75.9633 161.389,-73.4382 161.389,-73.4382"/>
</g>
<!-- 2 -->
<g id="node3" class="node"><title>2</title>
<polygon fill="none" stroke="black" points="496.07,-180 313.31,-180 313.31,-144 496.07,-144 496.07,-180"/>
<text text-anchor="middle" x="404.69" y="-157.8" font-family="Times,serif" font-size="14.00">zephyr.backend.discretization</text>
</g>
<!-- 0&#45;&gt;2 -->
<g id="edge2" class="edge"><title>0&#45;&gt;2</title>
<path fill="none" stroke="black" d="M431.933,-36.3728C425.762,-46.3631 418.675,-59.3992 414.69,-72 408.332,-92.1059 405.904,-115.887 405.026,-133.807"/>
<polygon fill="black" stroke="black" points="404.665,-143.864 400.527,-133.709 404.844,-138.868 405.024,-133.871 405.024,-133.871 405.024,-133.871 404.844,-138.868 409.521,-134.033 404.665,-143.864 404.665,-143.864"/>
</g>
<!-- 3 -->
<g id="node4" class="node"><title>3</title>
<polygon fill="none" stroke="black" points="561.48,-108 423.9,-108 423.9,-72 561.48,-72 561.48,-108"/>
<text text-anchor="middle" x="492.69" y="-85.8" font-family="Times,serif" font-size="14.00">zephyr.backend.eurus</text>
</g>
<!-- 0&#45;&gt;3 -->
<g id="edge3" class="edge"><title>0&#45;&gt;3</title>
<path fill="none" stroke="black" d="M455.802,-36.3034C461.558,-44.5259 468.552,-54.5168 474.895,-63.5793"/>
<polygon fill="black" stroke="black" points="480.717,-71.8957 471.296,-66.2839 477.85,-67.7995 474.982,-63.7033 474.982,-63.7033 474.982,-63.7033 477.85,-67.7995 478.669,-61.1227 480.717,-71.8957 480.717,-71.8957"/>
</g>
<!-- 4 -->
<g id="node5" class="node"><title>4</title>
<polygon fill="none" stroke="black" points="641.863,-252 507.517,-252 507.517,-216 641.863,-216 641.863,-252"/>
<text text-anchor="middle" x="574.69" y="-229.8" font-family="Times,serif" font-size="14.00">zephyr.backend.meta</text>
</g>
<!-- 0&#45;&gt;4 -->
<g id="edge4" class="edge"><title>0&#45;&gt;4</title>
<path fill="none" stroke="black" d="M495.526,-26.902C522.658,-33.9297 553.689,-47.157 570.69,-72 598.094,-112.044 590.181,-171.786 582.241,-206.116"/>
<polygon fill="black" stroke="black" points="579.815,-215.904 577.853,-205.115 581.018,-211.051 582.221,-206.198 582.221,-206.198 582.221,-206.198 581.018,-211.051 586.589,-207.28 579.815,-215.904 579.815,-215.904"/>
</g>
<!-- 5 -->
<g id="node6" class="node"><title>5</title>
<polygon fill="none" stroke="black" points="349.915,-108 179.465,-108 179.465,-72 349.915,-72 349.915,-108"/>
<text text-anchor="middle" x="264.69" y="-85.8" font-family="Times,serif" font-size="14.00">zephyr.backend.minizephyr</text>
</g>
<!-- 0&#45;&gt;5 -->
<g id="edge5" class="edge"><title>0&#45;&gt;5</title>
<path fill="none" stroke="black" d="M399.902,-36.1239C375.105,-45.8209 343.909,-58.0205 317.732,-68.2573"/>
<polygon fill="black" stroke="black" points="308.336,-71.9317 316.01,-64.0986 312.993,-70.1106 317.649,-68.2896 317.649,-68.2896 317.649,-68.2896 312.993,-70.1106 319.288,-72.4805 308.336,-71.9317 308.336,-71.9317"/>
</g>
<!-- 7 -->
<g id="node8" class="node"><title>7</title>
<polygon fill="none" stroke="black" points="761.195,-180 618.185,-180 618.185,-144 761.195,-144 761.195,-180"/>
<text text-anchor="middle" x="689.69" y="-157.8" font-family="Times,serif" font-size="14.00">zephyr.backend.source</text>
</g>
<!-- 0&#45;&gt;7 -->
<g id="edge6" class="edge"><title>0&#45;&gt;7</title>
<path fill="none" stroke="black" d="M495.451,-29.4196C528.211,-37.5884 570.493,-51.1315 603.69,-72 630.589,-88.9099 655.108,-115.98 671.02,-135.831"/>
<polygon fill="black" stroke="black" points="677.295,-143.846 667.587,-138.746 674.213,-139.909 671.131,-135.972 671.131,-135.972 671.131,-135.972 674.213,-139.909 674.674,-133.198 677.295,-143.846 677.295,-143.846"/>
</g>
<!-- 2&#45;&gt;4 -->
<g id="edge7" class="edge"><title>2&#45;&gt;4</title>
<path fill="none" stroke="black" d="M446.277,-180.124C469.723,-189.778 499.194,-201.913 523.987,-212.122"/>
<polygon fill="black" stroke="black" points="533.238,-215.932 522.278,-216.285 528.615,-214.028 523.992,-212.124 523.992,-212.124 523.992,-212.124 528.615,-214.028 525.705,-207.963 533.238,-215.932 533.238,-215.932"/>
</g>
<!-- 6 -->
<g id="node7" class="node"><title>6</title>
<polygon fill="none" stroke="black" points="475.37,-252 334.01,-252 334.01,-216 475.37,-216 475.37,-252"/>
<text text-anchor="middle" x="404.69" y="-229.8" font-family="Times,serif" font-size="14.00">zephyr.backend.solver</text>
</g>
<!-- 2&#45;&gt;6 -->
<g id="edge8" class="edge"><title>2&#45;&gt;6</title>
<path fill="none" stroke="black" d="M404.69,-180.303C404.69,-188.017 404.69,-197.288 404.69,-205.888"/>
<polygon fill="black" stroke="black" points="404.69,-215.896 400.19,-205.896 404.69,-210.896 404.69,-205.896 404.69,-205.896 404.69,-205.896 404.69,-210.896 409.19,-205.896 404.69,-215.896 404.69,-215.896"/>
</g>
<!-- 3&#45;&gt;2 -->
<g id="edge9" class="edge"><title>3&#45;&gt;2</title>
<path fill="none" stroke="black" d="M470.937,-108.303C459.854,-117.119 446.216,-127.968 434.2,-137.526"/>
<polygon fill="black" stroke="black" points="426.193,-143.896 431.217,-134.149 430.106,-140.783 434.019,-137.67 434.019,-137.67 434.019,-137.67 430.106,-140.783 436.82,-141.192 426.193,-143.896 426.193,-143.896"/>
</g>
<!-- 3&#45;&gt;4 -->
<g id="edge10" class="edge"><title>3&#45;&gt;4</title>
<path fill="none" stroke="black" d="M502.581,-108.129C516.803,-132.756 543.139,-178.362 559.743,-207.115"/>
<polygon fill="black" stroke="black" points="564.764,-215.811 555.866,-209.401 562.263,-211.481 559.763,-207.151 559.763,-207.151 559.763,-207.151 562.263,-211.481 563.66,-204.901 564.764,-215.811 564.764,-215.811"/>
</g>
<!-- 5&#45;&gt;2 -->
<g id="edge11" class="edge"><title>5&#45;&gt;2</title>
<path fill="none" stroke="black" d="M298.938,-108.124C317.751,-117.531 341.275,-129.292 361.356,-139.333"/>
<polygon fill="black" stroke="black" points="370.31,-143.81 359.354,-143.363 365.838,-141.574 361.366,-139.338 361.366,-139.338 361.366,-139.338 365.838,-141.574 363.379,-135.313 370.31,-143.81 370.31,-143.81"/>
</g>
<!-- 5&#45;&gt;5 -->
<g id="edge12" class="edge"><title>5&#45;&gt;5</title>
<path fill="none" stroke="black" d="M350.239,-78.2435C360.982,-80.3156 368.052,-84.2344 368.052,-90 368.052,-93.7837 365.007,-96.772 359.878,-98.965"/>
<polygon fill="black" stroke="black" points="350.239,-101.756 358.593,-94.6522 355.042,-100.366 359.844,-98.9746 359.844,-98.9746 359.844,-98.9746 355.042,-100.366 361.096,-103.297 350.239,-101.756 350.239,-101.756"/>
</g>
<!-- 7&#45;&gt;4 -->
<g id="edge13" class="edge"><title>7&#45;&gt;4</title>
<path fill="none" stroke="black" d="M661.558,-180.124C646.522,-189.276 627.823,-200.658 611.63,-210.515"/>
<polygon fill="black" stroke="black" points="602.93,-215.81 609.132,-206.767 607.201,-213.21 611.472,-210.611 611.472,-210.611 611.472,-210.611 607.201,-213.21 613.812,-214.455 602.93,-215.81 602.93,-215.81"/>
</g>
<!-- 8 -->
<g id="node9" class="node"><title>8</title>
<polygon fill="none" stroke="black" points="806.942,-36 702.438,-36 702.438,-0 806.942,-0 806.942,-36"/>
<text text-anchor="middle" x="754.69" y="-13.8" font-family="Times,serif" font-size="14.00">zephyr.frontend</text>
</g>
<!-- 9 -->
<g id="node10" class="node"><title>9</title>
<polygon fill="none" stroke="black" points="815.435,-108 693.945,-108 693.945,-72 815.435,-72 815.435,-108"/>
<text text-anchor="middle" x="754.69" y="-85.8" font-family="Times,serif" font-size="14.00">zephyr.frontend.cli</text>
</g>
<!-- 8&#45;&gt;9 -->
<g id="edge14" class="edge"><title>8&#45;&gt;9</title>
<path fill="none" stroke="black" d="M754.69,-36.3034C754.69,-44.0173 754.69,-53.2875 754.69,-61.8876"/>
<polygon fill="black" stroke="black" points="754.69,-71.8957 750.19,-61.8956 754.69,-66.8957 754.69,-61.8957 754.69,-61.8957 754.69,-61.8957 754.69,-66.8957 759.19,-61.8957 754.69,-71.8957 754.69,-71.8957"/>
</g>
<!-- 10 -->
<g id="node11" class="node"><title>10</title>
<polygon fill="none" stroke="black" points="1050.1,-36 927.283,-36 927.283,-0 1050.1,-0 1050.1,-36"/>
<text text-anchor="middle" x="988.69" y="-13.8" font-family="Times,serif" font-size="14.00">zephyr.middleware</text>
</g>
<!-- 12 -->
<g id="node13" class="node"><title>12</title>
<polygon fill="none" stroke="black" points="1018.25,-108 845.127,-108 845.127,-72 1018.25,-72 1018.25,-108"/>
<text text-anchor="middle" x="931.69" y="-85.8" font-family="Times,serif" font-size="14.00">zephyr.middleware.problem</text>
</g>
<!-- 10&#45;&gt;12 -->
<g id="edge15" class="edge"><title>10&#45;&gt;12</title>
<path fill="none" stroke="black" d="M974.6,-36.3034C967.767,-44.6954 959.433,-54.9295 951.934,-64.1387"/>
<polygon fill="black" stroke="black" points="945.618,-71.8957 948.443,-61.2999 948.775,-68.0185 951.932,-64.1413 951.932,-64.1413 951.932,-64.1413 948.775,-68.0185 955.422,-66.9827 945.618,-71.8957 945.618,-71.8957"/>
</g>
<!-- 13 -->
<g id="node14" class="node"><title>13</title>
<polygon fill="none" stroke="black" points="1128.42,-180 964.958,-180 964.958,-144 1128.42,-144 1128.42,-180"/>
<text text-anchor="middle" x="1046.69" y="-157.8" font-family="Times,serif" font-size="14.00">zephyr.middleware.survey</text>
</g>
<!-- 10&#45;&gt;13 -->
<g id="edge16" class="edge"><title>10&#45;&gt;13</title>
<path fill="none" stroke="black" d="M1004.47,-36.4358C1012.55,-46.2403 1021.88,-59.0789 1027.69,-72 1036.53,-91.6645 1041.34,-115.652 1043.91,-133.767"/>
<polygon fill="black" stroke="black" points="1045.21,-143.936 1039.48,-134.585 1044.58,-138.976 1043.94,-134.016 1043.94,-134.016 1043.94,-134.016 1044.58,-138.976 1048.41,-133.447 1045.21,-143.936 1045.21,-143.936"/>
</g>
<!-- 11 -->
<g id="node12" class="node"><title>11</title>
<polygon fill="none" stroke="black" points="946.935,-180 790.445,-180 790.445,-144 946.935,-144 946.935,-180"/>
<text text-anchor="middle" x="868.69" y="-157.8" font-family="Times,serif" font-size="14.00">zephyr.middleware.fields</text>
</g>
<!-- 12&#45;&gt;11 -->
<g id="edge17" class="edge"><title>12&#45;&gt;11</title>
<path fill="none" stroke="black" d="M916.117,-108.303C908.488,-116.78 899.167,-127.136 890.814,-136.417"/>
<polygon fill="black" stroke="black" points="884.084,-143.896 887.429,-133.452 887.429,-140.179 890.774,-136.463 890.774,-136.463 890.774,-136.463 887.429,-140.179 894.118,-139.473 884.084,-143.896 884.084,-143.896"/>
</g>
<!-- 12&#45;&gt;13 -->
<g id="edge18" class="edge"><title>12&#45;&gt;13</title>
<path fill="none" stroke="black" d="M959.822,-108.124C974.858,-117.276 993.557,-128.658 1009.75,-138.515"/>
<polygon fill="black" stroke="black" points="1018.45,-143.81 1007.57,-142.455 1014.18,-141.21 1009.91,-138.611 1009.91,-138.611 1009.91,-138.611 1014.18,-141.21 1012.25,-134.767 1018.45,-143.81 1018.45,-143.81"/>
</g>
<!-- 14 -->
<g id="node15" class="node"><title>14</title>
<polygon fill="none" stroke="black" points="1213.27,-36 1068.11,-36 1068.11,-0 1213.27,-0 1213.27,-36"/>
<text text-anchor="middle" x="1140.69" y="-13.8" font-family="Times,serif" font-size="14.00">zephyr.middleware.util</text>
</g>
</g>
</svg>
